<svg width="5067" height="1865" viewBox="0 0 5067 1865" fill="none" xmlns="http://www.w3.org/2000/svg">
<path fill-rule="evenodd" clip-rule="evenodd" d="M2022.01 932.5C2022.01 417.495 1604.51 6.59763e-05 1089.51 0C574.502 0 157.007 417.494 157.007 932.5C157.007 1053.78 180.159 1169.64 222.284 1275.93L0.893227 1727.15L546.004 1690.32C699.025 1800.26 886.705 1865 1089.51 1865C1604.51 1865 2022.01 1447.51 2022.01 932.5ZM1475.61 912.207L1089.91 256L704.212 912.207L1089.91 1152.21L1475.61 912.207ZM1089.91 1539.92L1476.01 989.266L1089.91 1231.28L703.008 989.266L1089.91 1539.92Z" fill="black"/>
<path d="M2592.56 1412V519.665H3193.84V675.213H2781.22V887.84H3162.9V1043.39H2781.22V1256.45H3195.58V1412H2592.56ZM4131.16 832.069H3940.32C3936.83 807.379 3929.72 785.448 3918.97 766.277C3908.22 746.815 3894.42 730.258 3877.58 716.606C3860.73 702.954 3841.27 692.497 3819.19 685.235C3797.41 677.973 3773.73 674.342 3748.17 674.342C3701.98 674.342 3661.75 685.816 3627.48 708.763C3593.2 731.42 3566.62 764.534 3547.74 808.105C3528.86 851.386 3519.42 903.961 3519.42 965.832C3519.42 1029.45 3528.86 1082.89 3547.74 1126.17C3566.91 1169.45 3593.64 1202.13 3627.91 1224.21C3662.19 1246.28 3701.84 1257.32 3746.86 1257.32C3772.13 1257.32 3795.52 1253.98 3817.01 1247.3C3838.8 1240.62 3858.11 1230.89 3874.96 1218.11C3891.81 1205.04 3905.75 1189.21 3916.79 1170.62C3928.12 1152.03 3935.96 1130.82 3940.32 1107L4131.16 1107.87C4126.22 1148.83 4113.88 1188.34 4094.12 1226.39C4074.66 1264.15 4048.37 1297.99 4015.26 1327.91C3982.44 1357.54 3943.22 1381.06 3897.62 1398.49C3852.3 1415.63 3801.04 1424.2 3743.81 1424.2C3664.22 1424.2 3593.06 1406.19 3530.31 1370.17C3467.86 1334.15 3418.48 1282.01 3382.17 1213.75C3346.15 1145.49 3328.14 1062.85 3328.14 965.832C3328.14 868.524 3346.44 785.739 3383.04 717.477C3419.64 649.216 3469.32 597.221 3532.06 561.493C3594.8 525.474 3665.38 507.465 3743.81 507.465C3795.52 507.465 3843.45 514.727 3887.6 529.25C3932.04 543.774 3971.4 564.979 4005.67 592.864C4039.95 620.459 4067.84 654.299 4089.33 694.385C4111.12 734.47 4125.06 780.365 4131.16 832.069ZM4266.45 1412V519.665H4618.5C4686.18 519.665 4743.84 532.591 4791.48 558.443C4839.12 584.005 4875.43 619.588 4900.41 665.192C4925.68 710.506 4938.31 762.791 4938.31 822.048C4938.31 881.305 4925.53 933.59 4899.97 978.904C4874.41 1024.22 4837.37 1059.51 4788.86 1084.78C4740.65 1110.05 4682.26 1122.69 4613.71 1122.69H4389.32V971.497H4583.21C4619.52 971.497 4649.44 965.251 4672.97 952.761C4696.78 939.98 4714.5 922.407 4726.12 900.04C4738.03 877.383 4743.99 851.386 4743.99 822.048C4743.99 792.42 4738.03 766.567 4726.12 744.491C4714.5 722.125 4696.78 704.842 4672.97 692.642C4649.15 680.151 4618.94 673.906 4582.34 673.906H4455.11V1412H4266.45Z" fill="black"/>
</svg>
